<mxfile host="app.diagrams.net" agent="Mozilla/5.0 (Windows NT 10.0; Win64; x64) AppleWebKit/537.36 (KHTML, like Gecko) Chrome/135.0.0.0 Safari/537.36" version="26.2.14">
  <diagram id="R2lEEEUBdFMjLlhIrx00" name="Page-1">
    <mxGraphModel grid="1" page="1" gridSize="10" guides="1" tooltips="1" connect="1" arrows="1" fold="1" pageScale="1" pageWidth="850" pageHeight="1100" math="0" shadow="0" extFonts="Permanent Marker^https://fonts.googleapis.com/css?family=Permanent+Marker">
      <root>
        <mxCell id="0" />
        <mxCell id="1" parent="0" />
        <mxCell id="_K7Lu5_fgnSbYeF6RcqC-18" value="Estado" style="swimlane;childLayout=stackLayout;horizontal=1;startSize=50;horizontalStack=0;rounded=1;fontSize=14;fontStyle=0;strokeWidth=2;resizeParent=0;resizeLast=1;shadow=0;dashed=0;align=center;arcSize=4;whiteSpace=wrap;html=1;" vertex="1" parent="1">
          <mxGeometry x="130" y="160" width="180" height="90" as="geometry" />
        </mxCell>
        <mxCell id="_K7Lu5_fgnSbYeF6RcqC-19" value="+uf(id)&lt;div&gt;+nome&lt;/div&gt;" style="align=left;strokeColor=none;fillColor=none;spacingLeft=4;spacingRight=4;fontSize=12;verticalAlign=top;resizable=0;rotatable=0;part=1;html=1;whiteSpace=wrap;" vertex="1" parent="_K7Lu5_fgnSbYeF6RcqC-18">
          <mxGeometry y="50" width="180" height="40" as="geometry" />
        </mxCell>
        <mxCell id="_K7Lu5_fgnSbYeF6RcqC-20" value="Município" style="swimlane;childLayout=stackLayout;horizontal=1;startSize=50;horizontalStack=0;rounded=1;fontSize=14;fontStyle=0;strokeWidth=2;resizeParent=0;resizeLast=1;shadow=0;dashed=0;align=center;arcSize=4;whiteSpace=wrap;html=1;" vertex="1" parent="1">
          <mxGeometry x="511" y="142" width="180" height="120" as="geometry">
            <mxRectangle x="510" y="130" width="100" height="50" as="alternateBounds" />
          </mxGeometry>
        </mxCell>
        <mxCell id="_K7Lu5_fgnSbYeF6RcqC-21" value="+idMunicipio&lt;br&gt;+uf&amp;nbsp;&lt;div&gt;+nome&lt;/div&gt;&lt;div&gt;+tipoCapital&lt;/div&gt;" style="align=left;strokeColor=none;fillColor=none;spacingLeft=4;spacingRight=4;fontSize=12;verticalAlign=top;resizable=0;rotatable=0;part=1;html=1;whiteSpace=wrap;" vertex="1" parent="_K7Lu5_fgnSbYeF6RcqC-20">
          <mxGeometry y="50" width="180" height="70" as="geometry" />
        </mxCell>
        <mxCell id="_K7Lu5_fgnSbYeF6RcqC-22" value="Escola" style="swimlane;childLayout=stackLayout;horizontal=1;startSize=50;horizontalStack=0;rounded=1;fontSize=14;fontStyle=0;strokeWidth=2;resizeParent=0;resizeLast=1;shadow=0;dashed=0;align=center;arcSize=4;whiteSpace=wrap;html=1;" vertex="1" parent="1">
          <mxGeometry x="870" y="130" width="180" height="160" as="geometry" />
        </mxCell>
        <mxCell id="_K7Lu5_fgnSbYeF6RcqC-23" value="+idEscola&lt;div&gt;+idMunicipio&lt;br&gt;&lt;div&gt;+nome&amp;nbsp;&lt;/div&gt;&lt;div&gt;+tipoCapital&lt;/div&gt;&lt;/div&gt;" style="align=left;strokeColor=none;fillColor=none;spacingLeft=4;spacingRight=4;fontSize=12;verticalAlign=top;resizable=0;rotatable=0;part=1;html=1;whiteSpace=wrap;" vertex="1" parent="_K7Lu5_fgnSbYeF6RcqC-22">
          <mxGeometry y="50" width="180" height="110" as="geometry" />
        </mxCell>
        <mxCell id="_K7Lu5_fgnSbYeF6RcqC-24" value="Classificacao Socioeconomica" style="swimlane;childLayout=stackLayout;horizontal=1;startSize=50;horizontalStack=0;rounded=1;fontSize=14;fontStyle=0;strokeWidth=2;resizeParent=0;resizeLast=1;shadow=0;dashed=0;align=center;arcSize=4;whiteSpace=wrap;html=1;" vertex="1" parent="1">
          <mxGeometry x="109" y="440" width="191" height="170" as="geometry" />
        </mxCell>
        <mxCell id="_K7Lu5_fgnSbYeF6RcqC-25" value="+idClassificacaoSE&lt;div&gt;+qtdQuartos&lt;/div&gt;&lt;div&gt;+qtdCelulares&lt;/div&gt;&lt;div&gt;&lt;span style=&quot;background-color: transparent; color: light-dark(rgb(0, 0, 0), rgb(255, 255, 255));&quot;&gt;+qtdGeladeiras&lt;/span&gt;&lt;/div&gt;&lt;div&gt;+qtdTelevisoes&lt;/div&gt;&lt;div&gt;&lt;div&gt;&lt;span style=&quot;background-color: transparent; color: light-dark(rgb(0, 0, 0), rgb(255, 255, 255));&quot;&gt;+qtdBanheiros&lt;/span&gt;&lt;/div&gt;&lt;/div&gt;&lt;div&gt;&lt;div&gt;+idEscolaridadePais&lt;/div&gt;&lt;/div&gt;&lt;div&gt;&lt;br&gt;&lt;/div&gt;" style="align=left;strokeColor=none;fillColor=none;spacingLeft=4;spacingRight=4;fontSize=12;verticalAlign=top;resizable=0;rotatable=0;part=1;html=1;whiteSpace=wrap;" vertex="1" parent="_K7Lu5_fgnSbYeF6RcqC-24">
          <mxGeometry y="50" width="191" height="120" as="geometry" />
        </mxCell>
        <mxCell id="vZmYM2gl9rFCmFoGzBrW-1" value="NotaSAEB" style="swimlane;childLayout=stackLayout;horizontal=1;startSize=50;horizontalStack=0;rounded=1;fontSize=14;fontStyle=0;strokeWidth=2;resizeParent=0;resizeLast=1;shadow=0;dashed=0;align=center;arcSize=4;whiteSpace=wrap;html=1;" vertex="1" parent="1">
          <mxGeometry x="1280" y="300" width="180" height="150" as="geometry" />
        </mxCell>
        <mxCell id="vZmYM2gl9rFCmFoGzBrW-2" value="+idSaeb&lt;div&gt;+idEscola&lt;br&gt;&lt;div&gt;&lt;span style=&quot;background-color: transparent; color: light-dark(rgb(0, 0, 0), rgb(255, 255, 255));&quot;&gt;+notaMatematica&lt;/span&gt;&lt;/div&gt;&lt;div&gt;+notaLinguaPort&lt;/div&gt;&lt;div&gt;+notaPadronizada&lt;/div&gt;&lt;div&gt;+anoMedicao&lt;/div&gt;&lt;/div&gt;" style="align=left;strokeColor=none;fillColor=none;spacingLeft=4;spacingRight=4;fontSize=12;verticalAlign=top;resizable=0;rotatable=0;part=1;html=1;whiteSpace=wrap;" vertex="1" parent="vZmYM2gl9rFCmFoGzBrW-1">
          <mxGeometry y="50" width="180" height="100" as="geometry" />
        </mxCell>
        <mxCell id="vZmYM2gl9rFCmFoGzBrW-3" value="NotaIDEB" style="swimlane;childLayout=stackLayout;horizontal=1;startSize=50;horizontalStack=0;rounded=1;fontSize=14;fontStyle=0;strokeWidth=2;resizeParent=0;resizeLast=1;shadow=0;dashed=0;align=center;arcSize=4;whiteSpace=wrap;html=1;" vertex="1" parent="1">
          <mxGeometry x="1280" y="160" width="180" height="120" as="geometry" />
        </mxCell>
        <mxCell id="vZmYM2gl9rFCmFoGzBrW-4" value="+idIdeb&lt;div&gt;+idEscola&lt;br&gt;&lt;div&gt;&lt;span style=&quot;background-color: transparent; color: light-dark(rgb(0, 0, 0), rgb(255, 255, 255));&quot;&gt;+notaIdeb&lt;/span&gt;&lt;/div&gt;&lt;div&gt;&lt;span style=&quot;background-color: transparent; color: light-dark(rgb(0, 0, 0), rgb(255, 255, 255));&quot;&gt;+anoMedicao&lt;/span&gt;&lt;/div&gt;&lt;/div&gt;" style="align=left;strokeColor=none;fillColor=none;spacingLeft=4;spacingRight=4;fontSize=12;verticalAlign=top;resizable=0;rotatable=0;part=1;html=1;whiteSpace=wrap;" vertex="1" parent="vZmYM2gl9rFCmFoGzBrW-3">
          <mxGeometry y="50" width="180" height="70" as="geometry" />
        </mxCell>
        <mxCell id="vZmYM2gl9rFCmFoGzBrW-5" value="Taxa Aprovação" style="swimlane;childLayout=stackLayout;horizontal=1;startSize=50;horizontalStack=0;rounded=1;fontSize=14;fontStyle=0;strokeWidth=2;resizeParent=0;resizeLast=1;shadow=0;dashed=0;align=center;arcSize=4;whiteSpace=wrap;html=1;" vertex="1" parent="1">
          <mxGeometry x="1280" y="-35" width="180" height="175" as="geometry" />
        </mxCell>
        <mxCell id="vZmYM2gl9rFCmFoGzBrW-6" value="+idAprovacao&lt;div&gt;+idEscola&lt;br&gt;&lt;div&gt;&lt;div&gt;&lt;span style=&quot;background-color: transparent; color: light-dark(rgb(0, 0, 0), rgb(255, 255, 255));&quot;&gt;+taxa1Ano&lt;/span&gt;&lt;/div&gt;&lt;div&gt;&lt;span style=&quot;background-color: transparent; color: light-dark(rgb(0, 0, 0), rgb(255, 255, 255));&quot;&gt;+taxa2Ano&lt;/span&gt;&lt;/div&gt;&lt;div&gt;&lt;div&gt;&lt;span style=&quot;background-color: transparent; color: light-dark(rgb(0, 0, 0), rgb(255, 255, 255));&quot;&gt;+taxa3Ano&lt;/span&gt;&lt;/div&gt;&lt;div&gt;&lt;span style=&quot;background-color: transparent; color: light-dark(rgb(0, 0, 0), rgb(255, 255, 255));&quot;&gt;+taxa4&lt;/span&gt;&lt;span style=&quot;background-color: transparent; color: light-dark(rgb(0, 0, 0), rgb(255, 255, 255));&quot;&gt;Ano&lt;/span&gt;&lt;/div&gt;&lt;/div&gt;&lt;div&gt;&lt;span style=&quot;background-color: transparent; color: light-dark(rgb(0, 0, 0), rgb(255, 255, 255));&quot;&gt;+indicadorRendimento&lt;/span&gt;&lt;/div&gt;&lt;/div&gt;&lt;div&gt;&lt;span style=&quot;background-color: transparent; color: light-dark(rgb(0, 0, 0), rgb(255, 255, 255));&quot;&gt;+anoMedicao&lt;/span&gt;&lt;/div&gt;&lt;/div&gt;" style="align=left;strokeColor=none;fillColor=none;spacingLeft=4;spacingRight=4;fontSize=12;verticalAlign=top;resizable=0;rotatable=0;part=1;html=1;whiteSpace=wrap;" vertex="1" parent="vZmYM2gl9rFCmFoGzBrW-5">
          <mxGeometry y="50" width="180" height="125" as="geometry" />
        </mxCell>
        <mxCell id="vZmYM2gl9rFCmFoGzBrW-7" value="Nivel Escolaridade" style="swimlane;childLayout=stackLayout;horizontal=1;startSize=50;horizontalStack=0;rounded=1;fontSize=14;fontStyle=0;strokeWidth=2;resizeParent=0;resizeLast=1;shadow=0;dashed=0;align=center;arcSize=4;whiteSpace=wrap;html=1;" vertex="1" parent="1">
          <mxGeometry x="114.5" y="710" width="180" height="100" as="geometry" />
        </mxCell>
        <mxCell id="vZmYM2gl9rFCmFoGzBrW-8" value="+idEscolaridadePais&lt;div&gt;&lt;span style=&quot;background-color: transparent; color: light-dark(rgb(0, 0, 0), rgb(255, 255, 255));&quot;&gt;+escolaridade&lt;/span&gt;&lt;/div&gt;" style="align=left;strokeColor=none;fillColor=none;spacingLeft=4;spacingRight=4;fontSize=12;verticalAlign=top;resizable=0;rotatable=0;part=1;html=1;whiteSpace=wrap;" vertex="1" parent="vZmYM2gl9rFCmFoGzBrW-7">
          <mxGeometry y="50" width="180" height="50" as="geometry" />
        </mxCell>
        <mxCell id="bcHV9fjEORENjAKYMDBM-1" style="edgeStyle=orthogonalEdgeStyle;rounded=0;orthogonalLoop=1;jettySize=auto;html=1;entryX=0;entryY=0.25;entryDx=0;entryDy=0;endArrow=ERzeroToMany;endFill=0;startArrow=ERmandOne;startFill=0;" edge="1" parent="1" source="_K7Lu5_fgnSbYeF6RcqC-19" target="_K7Lu5_fgnSbYeF6RcqC-21">
          <mxGeometry relative="1" as="geometry">
            <Array as="points">
              <mxPoint x="360" y="210" />
              <mxPoint x="360" y="210" />
            </Array>
          </mxGeometry>
        </mxCell>
        <mxCell id="M1kJ2RKUKYVJJ8QImk8B-1" value="&lt;span style=&quot;font-size: 18px;&quot;&gt;&amp;nbsp;Contém&amp;nbsp;&lt;/span&gt;" style="edgeLabel;html=1;align=center;verticalAlign=middle;resizable=0;points=[];" vertex="1" connectable="0" parent="bcHV9fjEORENjAKYMDBM-1">
          <mxGeometry x="-0.25" y="1" relative="1" as="geometry">
            <mxPoint x="15" y="1" as="offset" />
          </mxGeometry>
        </mxCell>
        <mxCell id="bcHV9fjEORENjAKYMDBM-2" style="edgeStyle=orthogonalEdgeStyle;rounded=0;orthogonalLoop=1;jettySize=auto;html=1;entryX=0;entryY=0.5;entryDx=0;entryDy=0;endArrow=ERzeroToMany;endFill=0;startArrow=ERmandOne;startFill=0;" edge="1" parent="1" target="_K7Lu5_fgnSbYeF6RcqC-22">
          <mxGeometry relative="1" as="geometry">
            <mxPoint x="689.9999999999998" y="209.9999999999999" as="sourcePoint" />
            <mxPoint x="849.9999999999998" y="209.9999999999999" as="targetPoint" />
          </mxGeometry>
        </mxCell>
        <mxCell id="M1kJ2RKUKYVJJ8QImk8B-2" value="&lt;font style=&quot;font-size: 18px;&quot;&gt;&amp;nbsp;Possui&amp;nbsp;&lt;/font&gt;" style="edgeLabel;html=1;align=center;verticalAlign=middle;resizable=0;points=[];" vertex="1" connectable="0" parent="bcHV9fjEORENjAKYMDBM-2">
          <mxGeometry x="0.0792" y="2" relative="1" as="geometry">
            <mxPoint as="offset" />
          </mxGeometry>
        </mxCell>
        <mxCell id="bcHV9fjEORENjAKYMDBM-4" value="Indicadores Alunos" style="swimlane;childLayout=stackLayout;horizontal=1;startSize=50;horizontalStack=0;rounded=1;fontSize=14;fontStyle=0;strokeWidth=2;resizeParent=0;resizeLast=1;shadow=0;dashed=0;align=center;arcSize=4;whiteSpace=wrap;html=1;" vertex="1" parent="1">
          <mxGeometry x="850" y="450" width="220" height="150" as="geometry" />
        </mxCell>
        <mxCell id="bcHV9fjEORENjAKYMDBM-5" value="+idIndicadoresAlunos&lt;div&gt;+idEscola&lt;br&gt;&lt;div&gt;+idClassificacaoInse&lt;div&gt;+qtdAlunosInse&lt;/div&gt;&lt;div&gt;&lt;div&gt;+mediaInse&lt;/div&gt;&lt;/div&gt;&lt;/div&gt;&lt;div&gt;+anoMedicao&lt;/div&gt;&lt;/div&gt;" style="align=left;strokeColor=none;fillColor=none;spacingLeft=4;spacingRight=4;fontSize=12;verticalAlign=top;resizable=0;rotatable=0;part=1;html=1;whiteSpace=wrap;" vertex="1" parent="bcHV9fjEORENjAKYMDBM-4">
          <mxGeometry y="50" width="220" height="100" as="geometry" />
        </mxCell>
        <mxCell id="M1kJ2RKUKYVJJ8QImk8B-3" style="edgeStyle=orthogonalEdgeStyle;rounded=0;orthogonalLoop=1;jettySize=auto;html=1;entryX=0.5;entryY=0;entryDx=0;entryDy=0;endArrow=ERzeroToMany;endFill=0;startArrow=ERmandOne;startFill=0;exitX=0.5;exitY=1;exitDx=0;exitDy=0;" edge="1" parent="1" source="_K7Lu5_fgnSbYeF6RcqC-23" target="bcHV9fjEORENjAKYMDBM-4">
          <mxGeometry relative="1" as="geometry">
            <mxPoint x="960" y="400" as="sourcePoint" />
            <Array as="points" />
          </mxGeometry>
        </mxCell>
        <mxCell id="M1kJ2RKUKYVJJ8QImk8B-43" value="Text" style="edgeLabel;html=1;align=center;verticalAlign=middle;resizable=0;points=[];" vertex="1" connectable="0" parent="M1kJ2RKUKYVJJ8QImk8B-3">
          <mxGeometry x="-0.0272" y="2" relative="1" as="geometry">
            <mxPoint as="offset" />
          </mxGeometry>
        </mxCell>
        <mxCell id="M1kJ2RKUKYVJJ8QImk8B-44" value="&lt;font style=&quot;font-size: 18px;&quot;&gt;Contém&lt;/font&gt;" style="edgeLabel;html=1;align=center;verticalAlign=middle;resizable=0;points=[];" vertex="1" connectable="0" parent="M1kJ2RKUKYVJJ8QImk8B-3">
          <mxGeometry x="-0.0272" y="2" relative="1" as="geometry">
            <mxPoint as="offset" />
          </mxGeometry>
        </mxCell>
        <mxCell id="Gy-nNBS9HgDsBIhfv153-1" value="Porcentagem Classificacao Alunos" style="swimlane;childLayout=stackLayout;horizontal=1;startSize=50;horizontalStack=0;rounded=1;fontSize=14;fontStyle=0;strokeWidth=2;resizeParent=0;resizeLast=1;shadow=0;dashed=0;align=center;arcSize=4;whiteSpace=wrap;html=1;" vertex="1" parent="1">
          <mxGeometry x="460" y="450" width="240" height="140" as="geometry" />
        </mxCell>
        <mxCell id="Gy-nNBS9HgDsBIhfv153-2" value="&lt;div&gt;&lt;span style=&quot;background-color: transparent; color: light-dark(rgb(0, 0, 0), rgb(255, 255, 255));&quot;&gt;+idPorcentagem&lt;/span&gt;&lt;/div&gt;&lt;div&gt;&lt;span style=&quot;background-color: transparent; color: light-dark(rgb(0, 0, 0), rgb(255, 255, 255));&quot;&gt;+id&lt;/span&gt;&lt;span style=&quot;background-color: transparent; color: light-dark(rgb(0, 0, 0), rgb(255, 255, 255));&quot;&gt;IndicadoresAlunos&lt;/span&gt;&lt;/div&gt;&lt;div style=&quot;&quot;&gt;&lt;span style=&quot;background-color: transparent; color: light-dark(rgb(0, 0, 0), rgb(255, 255, 255));&quot;&gt;+idClassificacaoSE&lt;/span&gt;&lt;div&gt;+porcentagemAlunos&lt;/div&gt;&lt;/div&gt;" style="align=left;strokeColor=none;fillColor=none;spacingLeft=4;spacingRight=4;fontSize=12;verticalAlign=top;resizable=0;rotatable=0;part=1;html=1;whiteSpace=wrap;" vertex="1" parent="Gy-nNBS9HgDsBIhfv153-1">
          <mxGeometry y="50" width="240" height="90" as="geometry" />
        </mxCell>
        <mxCell id="Gy-nNBS9HgDsBIhfv153-3" style="edgeStyle=orthogonalEdgeStyle;rounded=0;orthogonalLoop=1;jettySize=auto;html=1;entryX=1.007;entryY=0.334;entryDx=0;entryDy=0;entryPerimeter=0;endArrow=ERzeroToMany;endFill=0;startArrow=ERmandOne;startFill=0;" edge="1" parent="1" source="bcHV9fjEORENjAKYMDBM-5" target="Gy-nNBS9HgDsBIhfv153-2">
          <mxGeometry relative="1" as="geometry">
            <Array as="points">
              <mxPoint x="810" y="530" />
              <mxPoint x="810" y="530" />
            </Array>
          </mxGeometry>
        </mxCell>
        <mxCell id="M1kJ2RKUKYVJJ8QImk8B-29" value="&lt;font style=&quot;font-size: 18px;&quot;&gt;&amp;nbsp;Contém&amp;nbsp;&lt;/font&gt;" style="edgeLabel;html=1;align=center;verticalAlign=middle;resizable=0;points=[];" vertex="1" connectable="0" parent="Gy-nNBS9HgDsBIhfv153-3">
          <mxGeometry x="0.0036" y="-1" relative="1" as="geometry">
            <mxPoint as="offset" />
          </mxGeometry>
        </mxCell>
        <mxCell id="Gy-nNBS9HgDsBIhfv153-4" style="edgeStyle=orthogonalEdgeStyle;rounded=0;orthogonalLoop=1;jettySize=auto;html=1;endArrow=ERmandOne;endFill=0;startArrow=ERzeroToMany;startFill=0;" edge="1" parent="1" source="Gy-nNBS9HgDsBIhfv153-2" target="_K7Lu5_fgnSbYeF6RcqC-25">
          <mxGeometry relative="1" as="geometry">
            <Array as="points">
              <mxPoint x="380" y="530" />
              <mxPoint x="380" y="530" />
            </Array>
          </mxGeometry>
        </mxCell>
        <mxCell id="M1kJ2RKUKYVJJ8QImk8B-33" value="&amp;nbsp;&lt;font style=&quot;font-size: 18px;&quot;&gt;Refere&lt;/font&gt;&amp;nbsp;" style="edgeLabel;html=1;align=center;verticalAlign=middle;resizable=0;points=[];" vertex="1" connectable="0" parent="Gy-nNBS9HgDsBIhfv153-4">
          <mxGeometry x="0.1603" relative="1" as="geometry">
            <mxPoint x="6" as="offset" />
          </mxGeometry>
        </mxCell>
        <mxCell id="M1kJ2RKUKYVJJ8QImk8B-10" style="edgeStyle=orthogonalEdgeStyle;rounded=0;orthogonalLoop=1;jettySize=auto;html=1;exitX=0.5;exitY=1;exitDx=0;exitDy=0;endArrow=ERmandOne;endFill=0;startArrow=ERzeroToMany;startFill=0;" edge="1" parent="1" source="_K7Lu5_fgnSbYeF6RcqC-25" target="vZmYM2gl9rFCmFoGzBrW-7">
          <mxGeometry relative="1" as="geometry" />
        </mxCell>
        <mxCell id="M1kJ2RKUKYVJJ8QImk8B-35" value="&lt;font style=&quot;font-size: 18px;&quot;&gt;Inclui&lt;/font&gt;" style="edgeLabel;html=1;align=center;verticalAlign=middle;resizable=0;points=[];" vertex="1" connectable="0" parent="M1kJ2RKUKYVJJ8QImk8B-10">
          <mxGeometry x="-0.1316" y="-1" relative="1" as="geometry">
            <mxPoint x="1" y="6" as="offset" />
          </mxGeometry>
        </mxCell>
        <mxCell id="M1kJ2RKUKYVJJ8QImk8B-11" style="edgeStyle=orthogonalEdgeStyle;rounded=0;orthogonalLoop=1;jettySize=auto;html=1;endArrow=ERzeroToMany;endFill=0;entryX=0;entryY=0.5;entryDx=0;entryDy=0;startArrow=ERmandOne;startFill=0;" edge="1" parent="1" target="vZmYM2gl9rFCmFoGzBrW-6">
          <mxGeometry relative="1" as="geometry">
            <mxPoint x="1250" y="70" as="targetPoint" />
            <Array as="points">
              <mxPoint x="1050" y="160" />
              <mxPoint x="1165" y="160" />
              <mxPoint x="1165" y="70" />
              <mxPoint x="1280" y="70" />
            </Array>
            <mxPoint x="1050" y="160" as="sourcePoint" />
          </mxGeometry>
        </mxCell>
        <mxCell id="M1kJ2RKUKYVJJ8QImk8B-40" value="&lt;font style=&quot;font-size: 18px;&quot;&gt;&amp;nbsp;&lt;/font&gt;&lt;font style=&quot;font-size: 16px;&quot;&gt;Apresenta&lt;/font&gt;&lt;font style=&quot;font-size: 18px;&quot;&gt;&amp;nbsp;&lt;/font&gt;" style="edgeLabel;html=1;align=center;verticalAlign=middle;resizable=0;points=[];" vertex="1" connectable="0" parent="M1kJ2RKUKYVJJ8QImk8B-11">
          <mxGeometry x="-0.4223" y="1" relative="1" as="geometry">
            <mxPoint x="25" y="-39" as="offset" />
          </mxGeometry>
        </mxCell>
        <mxCell id="M1kJ2RKUKYVJJ8QImk8B-13" style="edgeStyle=orthogonalEdgeStyle;rounded=0;orthogonalLoop=1;jettySize=auto;html=1;endArrow=ERzeroToMany;endFill=0;startArrow=ERmandOne;startFill=0;" edge="1" parent="1">
          <mxGeometry relative="1" as="geometry">
            <mxPoint x="1280" y="210" as="targetPoint" />
            <Array as="points">
              <mxPoint x="1050" y="210" />
              <mxPoint x="1280" y="210" />
            </Array>
            <mxPoint x="1050" y="210" as="sourcePoint" />
          </mxGeometry>
        </mxCell>
        <mxCell id="M1kJ2RKUKYVJJ8QImk8B-41" value="&lt;font style=&quot;font-size: 16px;&quot;&gt;&amp;nbsp;Apresenta&amp;nbsp;&lt;/font&gt;" style="edgeLabel;html=1;align=center;verticalAlign=middle;resizable=0;points=[];" vertex="1" connectable="0" parent="M1kJ2RKUKYVJJ8QImk8B-13">
          <mxGeometry x="-0.3759" y="1" relative="1" as="geometry">
            <mxPoint x="47" y="1" as="offset" />
          </mxGeometry>
        </mxCell>
        <mxCell id="M1kJ2RKUKYVJJ8QImk8B-15" style="edgeStyle=orthogonalEdgeStyle;rounded=0;orthogonalLoop=1;jettySize=auto;html=1;exitX=1;exitY=0.75;exitDx=0;exitDy=0;startArrow=ERmandOne;startFill=0;endArrow=ERzeroToMany;endFill=0;" edge="1" parent="1" source="_K7Lu5_fgnSbYeF6RcqC-23">
          <mxGeometry relative="1" as="geometry">
            <Array as="points">
              <mxPoint x="1165" y="262" />
              <mxPoint x="1165" y="370" />
              <mxPoint x="1280" y="370" />
            </Array>
            <mxPoint x="1280" y="370" as="targetPoint" />
          </mxGeometry>
        </mxCell>
        <mxCell id="M1kJ2RKUKYVJJ8QImk8B-42" value="&lt;font style=&quot;font-size: 16px;&quot;&gt;&amp;nbsp;Apresenta&amp;nbsp;&lt;/font&gt;" style="edgeLabel;html=1;align=center;verticalAlign=middle;resizable=0;points=[];" vertex="1" connectable="0" parent="M1kJ2RKUKYVJJ8QImk8B-15">
          <mxGeometry x="-0.6871" y="-1" relative="1" as="geometry">
            <mxPoint x="62" y="51" as="offset" />
          </mxGeometry>
        </mxCell>
      </root>
    </mxGraphModel>
  </diagram>
</mxfile>
